<svg width="1920" height="1080" viewBox="0 0 1920 1080" fill="none" xmlns="http://www.w3.org/2000/svg">
<g id="SVGanim" clip-path="url(#clip0)">
<rect width="1920" height="1080" fill="#5939C6"/>
<path id="Ellipse 1" d="M2045 539.5C2045 833.596 1807.71 1072 1515 1072C1222.29 1072 985 833.596 985 539.5C985 245.404 1222.29 7 1515 7C1807.71 7 2045 245.404 2045 539.5Z" stroke="white" stroke-width="2"/>
<path id="Ellipse 2" d="M2522 540C2522 1096.7 2070.93 1548 1514.5 1548C958.074 1548 507 1096.7 507 540C507 -16.7035 958.074 -468 1514.5 -468C2070.93 -468 2522 -16.7035 2522 540Z" stroke="white" stroke-width="2"/>
<g id="cube4">
<path id="Vector" d="M1446 387L1334 331L1222 387V531L1334 587L1446 531V387Z" fill="white"/>
<path id="Vector 2" d="M1334 443L1222 387V531L1334 587L1446 531V387L1334 443Z" fill="#8F85E0"/>
<path id="Vector 3" d="M1334 443V587L1446 531V387L1334 443Z" fill="#BCB2FF"/>
</g>
<g id="cube2">
<path id="Vector_2" d="M1832 485L1720 429L1608 485V629L1720 685L1832 629V485Z" fill="#FFFDFF"/>
<path id="Vector 2_2" d="M1720 541L1608 485V629L1720 685L1832 629V485L1720 541Z" fill="#9189C8"/>
<path id="Vector 3_2" d="M1720 541V685L1832 629V485L1720 541Z" fill="#B4A8FF"/>
</g>
<g id="cube1">
<path id="Vector_3" d="M1670 596L1558 540L1446 596V740L1558 796L1670 740V596Z" fill="white"/>
<path id="Vector 2_3" d="M1558 652L1446 596V740L1558 796L1670 740V596L1558 652Z" fill="#E7A3C1"/>
<path id="Vector 3_3" d="M1558 652V796L1670 740V596L1558 652Z" fill="#FFC8EB"/>
</g>
<g id="cube3">
<path id="Vector_4" d="M1670 131L1558 75L1446 131V275L1558 331L1670 275V131Z" fill="#6F5DFF"/>
<path id="Vector 2_4" d="M1558 187L1446 131V275L1558 331L1670 275V131L1558 187Z" fill="#4137DE"/>
<path id="Vector 3_4" d="M1558 187V331L1670 275V131L1558 187Z" fill="#4F43FF"/>
</g>
</g>
<defs>
<clipPath id="clip0">
<rect width="1920" height="1080" fill="white"/>
</clipPath>
</defs>
</svg>
